<?xml version="1.0" encoding="UTF-8"?><svg id="Layer_1" xmlns="http://www.w3.org/2000/svg" viewBox="0 0 415.62 78.86"><rect x="229.62" width="1.03" height="78.86"/><path d="M85.77,35.69c-1.47,0-2.65-1.19-2.65-2.65V13.84l-7.8,1.5v.29h.07c1.46,0,2.65,1.18,2.65,2.64h0v14.53c-.34.37-1.63,1.58-3.81,1.58-2.06,0-3.73-1.64-3.8-3.68h0V13.83l-7.8,1.5v.29h.07c1.47,0,2.65,1.19,2.65,2.65h0s0,0,0,0v12.08c0,3.5,2.84,6.34,6.34,6.34,3.27,0,5.05-1.6,6.34-3.44v.22c0,1.47,1.19,2.65,2.65,2.65h5.18v-.42h-.11Z"/><path d="M167.38,33.88c-.49.3-1.07.48-1.69.48-1.79,0-3.24-1.45-3.24-3.24v-15.5h4.54l.39-1.15h-4.93v-5.61h-.71c-1.03,3.19-3.68,5.7-6.97,6.48v.29h2.65v16.36c0,2.6,2.11,4.71,4.71,4.71.09,0,.18,0,.27,0,1.7-.07,3.51-.84,4.98-2.12v-.68h0Z"/><path d="M121.03,13.81c-5.58,0-10.51,4.69-10.51,11.55s4.93,11.32,10.47,11.32,10.47-4.69,10.47-11.51-4.98-11.37-10.42-11.37h0ZM120.98,36.05c-3.33,0-4.93-4.84-4.93-10.8s1.6-10.8,4.93-10.8,4.93,4.84,4.93,10.8-1.6,10.8-4.93,10.8Z"/><path d="M102.53,3.55h-15.77v.55c1.93.16,3.44,1.77,3.44,3.73v24c0,1.97-1.52,3.58-3.44,3.73v.55h12.84v-.55h-.2c-2.05,0-3.75-1.65-3.75-3.7v-10.09h6.88c5.04,0,9.12-4.08,9.12-9.12h0c0-5.04-4.08-9.12-9.12-9.12h0ZM106.11,13.17c0,4.4-3.56,7.96-7.96,7.96h-2.51V4.21h2.51c4.4,0,7.96,3.56,7.96,7.96v1h0Z"/><path d="M62.65,35.69c-1.47,0-2.65-1.19-2.65-2.65V3.02l-7.94,1.5v.29h.07c1.46,0,2.65,1.18,2.65,2.64h0v7.26c-.8-.49-1.82-.8-3.11-.88-6.56-.41-11.16,5.1-11.31,11.39-.16,6.52,2.8,11.68,8.67,11.47,2.21-.08,4.23-1.27,5.77-3.05.09,1.38,1.24,2.48,2.64,2.48h5.32v-.42h-.1ZM51.73,34.5c-3.3,0-5.97-4.49-5.97-10.04s2.67-10.04,5.97-10.04c1.12,0,2.16.52,3.05,1.41v17.25c-.89.9-1.94,1.41-3.05,1.41Z"/><path d="M155.61,35.59c-1.47,0-2.65-1.19-2.65-2.65v-12.14c0-3.86-3.13-6.98-6.98-6.98h0c-2.62,0-4.9,1.44-6.09,3.57v-3.54l-7.8,1.5v.29h.07c1.47,0,2.65,1.19,2.65,2.65v-.04h0v14.7c0,1.43-1.13,2.59-2.55,2.65v.53h10.28v-.4h-.35c-1.27,0-2.3-1.03-2.3-2.3v-15.45c.8-1.1,2.1-1.82,3.57-1.82h0c2.44,0,4.42,1.98,4.42,4.42v12.84c0,1.27-1.02,2.3-2.29,2.3h-.16v.4h10.23v-.53h-.04,0Z"/><path d="M115.05,56.16l-2-.79c-5.16-2.05-7.07-3.67-7.07-6.98s2.51-5.78,6.37-5.78c4.88,0,7.37,3.08,8.44,8.48h.45l.23-7.35c-1.81-.7-4.74-1.77-8.84-1.77-5.63,0-10.51,3.82-10.51,9.26,0,4.75,3.35,7.16,8.19,9.16l1.86.79c3.96,1.58,7.63,3.12,7.63,7.49,0,3.72-2.75,6.53-7.07,6.53-6.14,0-9.04-5.08-10.25-11.5h-.45l-.28,9.4c2.09,1.3,6.33,2.75,10.61,2.75,6.7,0,11.31-4.42,11.31-10.14,0-4.65-2.7-7.16-8.61-9.54h0Z"/><path d="M140.82,70.91v-27.25h2.28c4.21,0,7.65,3.29,7.89,7.44h.47l-.65-8.47h-25.37l-.65,8.47h.47c.24-4.15,3.68-7.44,7.89-7.44h2.28v27.25c0,1.97-1.52,3.58-3.44,3.73v.55h12.28v-.55c-1.93-.16-3.44-1.77-3.44-3.73h0Z"/><path d="M82.98,61.52c0-1.17.95-2.12,2.12-2.12h.99v-.48h-12.33v.48h1.69c1.17,0,2.12.95,2.12,2.12v12c-1.35,1.21-3.26,1.69-5.26,1.69-6.42,0-9.86-7.46-9.86-17.23,0-9.21,4-15.37,9.95-15.37,4.09,0,8.1,1.87,9.51,8.48h.45l.04-6.88c-2.98-1.35-6.75-2.23-10.05-2.23-8.89,0-15.96,6.88-15.96,17.03s6.7,16.84,15.58,16.84c3.4,0,7.58-1.21,10.98-3.35v-10.98h0Z"/><path d="M98.65,74.66c-1.66,0-3.01-1.35-3.01-3.01v-25.49c0-1.66,1.35-3.01,3.01-3.01h.34v-.53h-12.14v.53h.34c1.66,0,3.01,1.35,3.01,3.01v25.49c0,1.66-1.35,3.01-3.01,3.01h-.34v.53h12.14v-.53h-.34Z"/><path d="M197.72,42.63v.48h.62c1.99,0,3.27,2.1,2.36,3.87l-5.8,11.3-6.03-11.26c-.95-1.77.33-3.91,2.34-3.91h.09v-.48h-13.07v.48c1.5,0,2.88.82,3.6,2.14l8.27,15.15v10.51c0,1.97-1.52,3.58-3.44,3.73v.55h12.28v-.55c-1.93-.16-3.44-1.77-3.44-3.73v-11.91l6.71-13.11c.87-1.71,2.63-2.78,4.55-2.78v-.48h-9.02Z"/><path d="M176.44,67.84l-5.44-8.4c4-.68,7.04-4.15,7.04-8.34h0c0-4.68-3.79-8.47-8.47-8.47h-16.23v.55c1.93.16,3.44,1.77,3.44,3.73v24c0,1.97-1.51,3.58-3.44,3.73v.55h12.93v-.53h-.3c-2.07,0-3.75-1.68-3.75-3.75v-11.35h1.72c.78,0,1.51.4,1.93,1.05l9.43,14.58h8.21v-.53c-3.07-.5-4.54-3.18-7.08-6.82h0ZM165.08,58.91h-2.85v-15.62h2.85c4.1,0,7.43,3.33,7.43,7.43v.76c0,4.1-3.33,7.43-7.43,7.43Z"/><path d="M54.26,65.79c-1.59,7.02-3.76,8.74-10.02,8.74h-2.91c-1.27,0-2.3-1.03-2.3-2.3v-13.32h3.31c2.82,0,5.13,2.2,5.3,4.98h.42v-10.1h-.41c-.12,2.54-2.21,4.56-4.77,4.56h-3.84v-15.07h5.4c5.54,0,7.38,2.13,8.25,7.81h.4v-8.46h-22.93v.55c1.93.16,3.44,1.77,3.44,3.73v24c0,1.83-1.3,3.34-3.03,3.68-.38.06-.74,0-.96-.05-2.68-.73-4.12-3.3-6.49-6.69l-5.44-8.4c4-.68,7.04-4.15,7.04-8.34h0c0-4.68-3.79-8.47-8.47-8.47H0v.55c1.93.16,3.44,1.77,3.44,3.73v24c0,1.97-1.51,3.58-3.44,3.73v.55h12.93v-.53h-.3c-2.07,0-3.75-1.68-3.75-3.75v-11.35h1.72c.78,0,1.51.4,1.93,1.05l9.43,14.58h32.08l.6-9.4h-.4,0ZM11.74,58.91h-2.85v-15.62h2.85c4.1,0,7.43,3.33,7.43,7.43v.76c0,4.1-3.33,7.43-7.43,7.43Z"/><polygon points="255.75 41.13 263.76 41.13 263.76 38.94 255.75 38.94 255.75 33.84 267.64 33.84 267.64 31.65 253.57 31.65 253.52 31.65 253.52 47.21 253.57 47.21 268.12 47.21 268.12 45.02 255.75 45.02 255.75 41.13"/><path d="M307.78,42.37c-1.24,2.15-3.78,3.63-6.72,3.63-4.15,0-7.52-2.95-7.52-6.57s3.37-6.57,7.52-6.57c2.93,0,5.48,1.48,6.72,3.63h2.42c-1.34-3.39-4.92-5.81-9.14-5.81-5.36,0-9.7,3.92-9.7,8.76s4.34,8.76,9.7,8.76c4.21,0,7.8-2.43,9.14-5.81h-2.42Z"/><polygon points="403.26 41.13 411.26 41.13 411.26 38.94 403.26 38.94 403.26 33.84 415.14 33.84 415.14 31.65 401.07 31.65 401.03 31.65 401.03 47.21 401.07 47.21 415.62 47.21 415.62 45.02 403.26 45.02 403.26 41.13"/><polygon points="270.01 47.21 273.35 47.21 280.03 40.99 286.7 47.21 290.04 47.21 281.7 39.43 290.04 31.65 286.7 31.65 280.03 37.87 273.35 31.65 270.01 31.65 278.36 39.43 270.01 47.21"/><polygon points="372.35 44.51 359.93 31.65 357.32 31.65 357.32 47.21 359.5 47.21 359.5 34.35 371.92 47.21 374.53 47.21 374.53 31.65 372.35 31.65 372.35 44.51"/><path d="M352.04,47.21h2.63l-8.99-15.57h-2.63l-8.99,15.57h2.63l1.97-3.4h11.41l1.97,3.4h0ZM339.93,41.62l4.44-7.69,4.44,7.69h-8.88Z"/><polygon points="329.24 31.65 329.24 38.34 316.39 38.34 316.39 31.65 314.21 31.65 314.21 47.21 316.39 47.21 316.39 40.53 329.24 40.53 329.24 47.21 331.42 47.21 331.42 31.65 329.24 31.65"/><path d="M387.87,39.19v2.19h7.4c-.36.93-.96,1.78-1.8,2.51-.71.62-1.55,1.11-2.48,1.45-.98.36-2.03.55-3.12.55s-2.13-.18-3.12-.55c-.94-.34-1.77-.83-2.48-1.45-1.39-1.21-2.16-2.79-2.16-4.45s.77-3.24,2.16-4.45c.71-.62,1.55-1.11,2.48-1.45.98-.36,2.03-.55,3.12-.55s2.13.18,3.12.55c.94.34,1.77.83,2.48,1.45.14.12.28.25.41.38h2.76c-1.67-2.72-4.97-4.57-8.77-4.57-5.49,0-9.94,3.87-9.94,8.63s4.45,8.63,9.94,8.63,9.94-3.87,9.94-8.63c0-.08,0-.16,0-.24h-9.94,0Z"/></svg>