<svg xmlns="http://www.w3.org/2000/svg" xmlns:xlink="http://www.w3.org/1999/xlink" viewBox="0 0 2658.92 615.59"><defs><style>.a{fill:none;}.b{fill:#4267b2;}.c{clip-path:url(#a);}.d{fill:#333;}.e{fill:#4c4c4c;}.f{fill:#515151;}</style><clipPath id="a" transform="translate(-81.64 -639.57)"><rect class="a" width="2838.29" height="1993.84"/></clipPath></defs><rect class="b" y="155.16" width="27.57" height="179.02"/><rect class="b" x="48.57" y="155.16" width="27.57" height="179.02"/><rect class="b" x="98.08" y="155.16" width="27.57" height="179.02"/><rect class="b" x="187.58" y="155.16" width="24.14" height="179.02"/><rect class="b" x="234.54" y="155.16" width="27.57" height="179.02"/><rect class="b" x="282.67" y="155.16" width="16.69" height="179.02"/><rect class="b" x="322.45" y="155.16" width="16.69" height="179.02"/><rect class="b" x="360.99" y="155.16" width="16.69" height="179.02"/><rect class="b" x="429.7" y="155.16" width="12.54" height="179.02"/><rect class="b" x="480.59" y="155.16" width="6.64" height="179.02"/><rect class="b" x="536.58" y="155.16" width="12.97" height="179.02"/><rect class="b" x="574.61" y="155.16" width="8.35" height="179.02"/><rect class="b" x="624" y="155.16" width="8.35" height="179.02"/><rect class="b" x="677.1" y="155.16" width="13.32" height="179.02"/><rect class="b" x="723.97" y="155.16" width="12.88" height="179.02"/><rect class="b" x="770.15" y="155.16" width="16.85" height="179.02"/><rect class="b" x="818.51" y="155.16" width="12.43" height="179.02"/><rect class="b" x="854.74" y="155.16" width="12.43" height="179.02"/><rect class="b" x="892.01" y="155.16" width="7.64" height="179.02"/><rect class="b" x="919.37" y="155.16" width="34.04" height="179.02"/><rect class="b" x="977.78" y="155.16" width="12.43" height="179.02"/><rect class="b" x="1020.77" y="155.16" width="12.43" height="179.02"/><rect class="b" x="1052.4" y="155.16" width="12.43" height="179.02"/><rect class="b" x="1113.54" y="155.16" width="17.52" height="179.02"/><rect class="b" x="1179.5" y="155.16" width="46.01" height="179.02"/><rect class="b" x="1269.65" y="155.16" width="12.43" height="179.02"/><rect class="b" x="1332.01" y="155.16" width="12.43" height="179.02"/><rect class="b" x="1377.11" y="155.16" width="12.43" height="179.02"/><rect class="b" x="1436.08" y="155.16" width="12.43" height="179.02"/><rect class="b" x="1466.05" y="155.16" width="12.43" height="179.02"/><rect class="b" x="1498.14" y="155.16" width="12.43" height="179.02"/><rect x="1534.83" y="155.16" width="9.23" height="179.02"/><rect x="1597.6" y="155.16" width="12.43" height="179.02"/><rect x="1629.21" y="155.16" width="12.43" height="179.02"/><rect x="1672.21" y="155.16" width="12.43" height="179.02"/><rect x="1720.14" y="155.16" width="12.43" height="179.02"/><rect x="1760.8" y="155.16" width="12.43" height="179.02"/><rect x="1795.25" y="155.16" width="12.43" height="179.02"/><rect x="1831.48" y="155.16" width="12.43" height="179.02"/><rect x="1877.28" y="155.16" width="12.43" height="179.02"/><rect x="1925.4" y="155.16" width="12.43" height="179.02"/><rect class="b" x="1974.59" y="155.16" width="12.43" height="179.02"/><rect class="b" x="2027.5" y="155.16" width="19.48" height="179.02"/><rect class="b" x="2074.97" y="155.16" width="16.96" height="179.02"/><rect class="b" x="2141.14" y="155.16" width="12.43" height="179.02"/><rect class="b" x="2172.75" y="155.16" width="12.43" height="179.02"/><rect class="b" x="2221.43" y="155.16" width="12.43" height="179.02"/><rect class="b" x="2286.87" y="155.16" width="12.43" height="179.02"/><rect class="b" x="2325.42" y="155.16" width="12.43" height="179.02"/><rect class="b" x="2365.55" y="155.16" width="12.43" height="179.02"/><rect class="b" x="2403.76" y="155.16" width="20.21" height="179.02"/><rect class="b" x="2453.39" y="155.16" width="19.47" height="179.02"/><rect class="b" x="2538.13" y="155.16" width="24.23" height="179.02"/><rect class="b" x="2586.26" y="155.16" width="23.77" height="179.02"/><rect class="b" x="2638" y="155.16" width="20.92" height="179.02"/><g class="c"><path class="d" d="M288.8,1074q0,4.71-.35,8.12a30.63,30.63,0,0,1-1,5.44,6.36,6.36,0,0,1-1.55,2.84,3.18,3.18,0,0,1-2.18.81c-1.22,0-3.18-1-5.9-2.93A83.73,83.73,0,0,0,267,1082a106.13,106.13,0,0,0-16.08-6.34,73.06,73.06,0,0,0-21.7-2.92,51.78,51.78,0,0,0-42.12,20.21,69.58,69.58,0,0,0-11.65,23.22,103.64,103.64,0,0,0-4.08,30q0,18,4.15,31.73a66.92,66.92,0,0,0,11.58,23,48,48,0,0,0,17.9,14,55.63,55.63,0,0,0,23.1,4.7,46.94,46.94,0,0,0,12.22-1.62,41.13,41.13,0,0,0,11.24-4.87v-48.7H217.18q-2.53,0-3.93-3.65t-1.4-12.42a70.66,70.66,0,0,1,.34-7.63,21.47,21.47,0,0,1,1.06-5,7.09,7.09,0,0,1,1.68-2.76,3.25,3.25,0,0,1,2.25-.9h61.37a8.66,8.66,0,0,1,4,.9,8.87,8.87,0,0,1,3.09,2.68,12.89,12.89,0,0,1,2,4.3,21.41,21.41,0,0,1,.71,5.76v83.6a22.77,22.77,0,0,1-1.48,8.53c-1,2.43-3,4.35-6,5.76a114.14,114.14,0,0,1-11.31,4.38,137.62,137.62,0,0,1-14,3.9,133.67,133.67,0,0,1-14.61,2.43,135.42,135.42,0,0,1-14.81.82q-21.76,0-39-7.23a78.06,78.06,0,0,1-29.14-20.94q-11.94-13.71-18.26-33.44t-6.31-44.72q0-25.82,6.74-46.35t19.09-34.9a82.27,82.27,0,0,1,29.85-22q17.47-7.64,39-7.63a114.28,114.28,0,0,1,21.49,1.87,107.05,107.05,0,0,1,16.92,4.54,62.77,62.77,0,0,1,12,5.76,31.12,31.12,0,0,1,6.67,5.36,14.57,14.57,0,0,1,2.74,6.42,66.34,66.34,0,0,1,.84,12.25" transform="translate(-81.64 -639.57)"/><path class="d" d="M363.36,1245.58a5,5,0,0,1-.91,2.93,6.43,6.43,0,0,1-3,2.11,25.88,25.88,0,0,1-5.61,1.29,82.07,82.07,0,0,1-17.91,0,26,26,0,0,1-5.69-1.29,6.39,6.39,0,0,1-3-2.11,5,5,0,0,1-.92-2.93V1047.21a4.94,4.94,0,0,1,.92-2.92,6.33,6.33,0,0,1,3.08-2.12,28.18,28.18,0,0,1,5.69-1.29,65.37,65.37,0,0,1,8.85-.49,66.82,66.82,0,0,1,9,.49,26.48,26.48,0,0,1,5.61,1.29,6.37,6.37,0,0,1,3,2.12,4.93,4.93,0,0,1,.91,2.92Z" transform="translate(-81.64 -639.57)"/><path class="d" d="M493.4,1244a14.76,14.76,0,0,1-1.83,4.46,6.93,6.93,0,0,1-3.65,2.6,25.78,25.78,0,0,1-6.88,1.13q-4.35.25-11.37.25-5.62,0-9.62-.08t-6.82-.41a20.49,20.49,0,0,1-4.56-1,10.24,10.24,0,0,1-2.95-1.63,6.43,6.43,0,0,1-1.82-2.35,22.87,22.87,0,0,1-1.2-3.49l-54.06-186.2a57.77,57.77,0,0,1-2-9.25c-.23-2.28.24-4,1.41-5.12s3.16-1.83,6-2.11,6.74-.4,11.79-.4c4.31,0,7.67.11,10.11.32a20.09,20.09,0,0,1,5.62,1.14,5,5,0,0,1,2.74,2.44,27.73,27.73,0,0,1,1.47,4l44.24,162h.14l43.39-161.19a18.48,18.48,0,0,1,1.4-4.47,5.91,5.91,0,0,1,2.88-2.68,17.46,17.46,0,0,1,5.83-1.3q3.79-.32,10.39-.32a78.07,78.07,0,0,1,10,.49c2.39.32,4,1.1,4.92,2.35s1.17,3,.84,5.27a68.49,68.49,0,0,1-2.18,9.09Z" transform="translate(-81.64 -639.57)"/><path class="d" d="M680.73,1234.7a74.5,74.5,0,0,1-.35,7.88,23.1,23.1,0,0,1-1.06,5.11,6.56,6.56,0,0,1-1.75,2.84,3.5,3.5,0,0,1-2.32.9H584a10.6,10.6,0,0,1-7.79-3.17Q573,1245.1,573,1238V1054.84q0-7.15,3.16-10.31a10.56,10.56,0,0,1,7.79-3.17h90.72a3.51,3.51,0,0,1,2.25.81,6.45,6.45,0,0,1,1.68,2.84,24.86,24.86,0,0,1,1.06,5.2,76.77,76.77,0,0,1,.34,8,72.66,72.66,0,0,1-.34,7.71,23.21,23.21,0,0,1-1.06,5.12,7,7,0,0,1-1.68,2.84,3.25,3.25,0,0,1-2.25.9H609.81v51.29h54.91a3.55,3.55,0,0,1,2.32.89,6.67,6.67,0,0,1,1.75,2.76,21.79,21.79,0,0,1,1.06,5,72.82,72.82,0,0,1,.35,7.72,72,72,0,0,1-.35,7.79,21.47,21.47,0,0,1-1.06,5,5.92,5.92,0,0,1-1.75,2.68,3.74,3.74,0,0,1-2.32.81H609.81V1218h65.44a3.54,3.54,0,0,1,2.32.89,6.66,6.66,0,0,1,1.75,2.85,23.1,23.1,0,0,1,1.06,5.11,74.42,74.42,0,0,1,.35,7.87" transform="translate(-81.64 -639.57)"/><path class="d" d="M939.29,1245.58a5.7,5.7,0,0,1-.77,2.93,5.51,5.51,0,0,1-2.81,2.11,24.31,24.31,0,0,1-5.41,1.29,62.34,62.34,0,0,1-8.56.49,61.31,61.31,0,0,1-8.43-.49,22.81,22.81,0,0,1-5.33-1.29,5.93,5.93,0,0,1-2.81-2.11,5.31,5.31,0,0,1-.85-2.93V1074.64h-.27l-52.67,170.78a8.19,8.19,0,0,1-1.82,3.49,8.72,8.72,0,0,1-3.44,2.19,20.36,20.36,0,0,1-5.55,1.05q-3.37.25-8.14.25a69.6,69.6,0,0,1-8.15-.41,21.78,21.78,0,0,1-5.54-1.29,10,10,0,0,1-3.44-2.19,6.45,6.45,0,0,1-1.69-3.09l-50.83-170.78h-.29v170.94a4.94,4.94,0,0,1-3.65,5,25.52,25.52,0,0,1-5.4,1.29,73.28,73.28,0,0,1-16.92,0,24.31,24.31,0,0,1-5.41-1.29,5.51,5.51,0,0,1-2.81-2.11,5.7,5.7,0,0,1-.77-2.93V1058.41q0-8.28,3.79-12.67a12.71,12.71,0,0,1,10.11-4.38h24.15a44.22,44.22,0,0,1,11.1,1.22,20.15,20.15,0,0,1,8,4.06,22.27,22.27,0,0,1,5.62,7.47,58.73,58.73,0,0,1,3.93,11.44l39.32,125.16h.56l40.73-124.84a71,71,0,0,1,4-11.52,26.71,26.71,0,0,1,5-7.63,16.08,16.08,0,0,1,6.81-4.14,31,31,0,0,1,9.13-1.22h24.86a17,17,0,0,1,6.53,1.14,11.15,11.15,0,0,1,4.49,3.33,15.27,15.27,0,0,1,2.67,5.35,26.08,26.08,0,0,1,.91,7.23Z" transform="translate(-81.64 -639.57)"/><path class="d" d="M1086.5,1234.7a74.5,74.5,0,0,1-.35,7.88,23.76,23.76,0,0,1-1.05,5.11,6.6,6.6,0,0,1-1.66,2.84,3.5,3.5,0,0,1-2.32.9H989.84a10.6,10.6,0,0,1-7.79-3.17q-3.16-3.16-3.16-10.31V1054.84q0-7.15,3.16-10.31a10.56,10.56,0,0,1,7.79-3.17h90.72a3.51,3.51,0,0,1,2.25.81,6.45,6.45,0,0,1,1.68,2.84,25.54,25.54,0,0,1,1,5.2,76.4,76.4,0,0,1,.35,8,72.35,72.35,0,0,1-.35,7.71,23.89,23.89,0,0,1-1,5.12,7,7,0,0,1-1.68,2.84,3.25,3.25,0,0,1-2.25.9h-64.88v51.29h54.91a3.55,3.55,0,0,1,2.32.89,6.67,6.67,0,0,1,1.75,2.76,21.79,21.79,0,0,1,1.06,5,72.82,72.82,0,0,1,.35,7.72,72,72,0,0,1-.35,7.79,21.47,21.47,0,0,1-1.06,5,5.92,5.92,0,0,1-1.75,2.68,3.74,3.74,0,0,1-2.32.81h-54.91V1218h65.44a3.54,3.54,0,0,1,2.32.89,6.7,6.7,0,0,1,1.66,2.85,23.76,23.76,0,0,1,1.05,5.11,74.42,74.42,0,0,1,.35,7.87" transform="translate(-81.64 -639.57)"/><path class="d" d="M1262.67,1058.9a79.42,79.42,0,0,1-.35,8,25.2,25.2,0,0,1-1,5.36,7.32,7.32,0,0,1-1.76,3,3.33,3.33,0,0,1-2.32,1H1211.7v169.32a4.94,4.94,0,0,1-.92,2.92,6.39,6.39,0,0,1-3,2.12,26.63,26.63,0,0,1-5.69,1.29,81.44,81.44,0,0,1-17.84,0,26.52,26.52,0,0,1-5.68-1.29,6.4,6.4,0,0,1-3-2.12,4.93,4.93,0,0,1-.91-2.92V1076.26h-45.5a3.24,3.24,0,0,1-2.38-1,7.76,7.76,0,0,1-1.69-3,24.59,24.59,0,0,1-1-5.36,76.59,76.59,0,0,1-.35-8,81.19,81.19,0,0,1,.35-8.29,24.82,24.82,0,0,1,1-5.44,7.09,7.09,0,0,1,1.69-2.92,3.43,3.43,0,0,1,2.38-.89h128.07a3.52,3.52,0,0,1,2.32.89,6.72,6.72,0,0,1,1.76,2.92,25.43,25.43,0,0,1,1,5.44q.35,3.42.35,8.29" transform="translate(-81.64 -639.57)"/><path class="d" d="M1426,1245.58a5,5,0,0,1-.91,2.93,6.43,6.43,0,0,1-3,2.11,25.88,25.88,0,0,1-5.61,1.29,67.16,67.16,0,0,1-8.85.49,70.13,70.13,0,0,1-9.06-.49,24.62,24.62,0,0,1-5.62-1.29,6.36,6.36,0,0,1-2.94-2.11,5,5,0,0,1-.92-2.93v-84.9h-68v84.9a5.31,5.31,0,0,1-.85,2.93,6,6,0,0,1-3,2.11,25.88,25.88,0,0,1-5.61,1.29,82.07,82.07,0,0,1-17.91,0,26,26,0,0,1-5.69-1.29,6.39,6.39,0,0,1-3-2.11,5,5,0,0,1-.92-2.93V1047.21a4.94,4.94,0,0,1,.92-2.92,6.34,6.34,0,0,1,3-2.12,26.63,26.63,0,0,1,5.69-1.29,82.07,82.07,0,0,1,17.91,0,26.48,26.48,0,0,1,5.61,1.29,5.9,5.9,0,0,1,3,2.12,5.26,5.26,0,0,1,.85,2.92v77.1h68v-77.1a4.94,4.94,0,0,1,.92-2.92,6.31,6.31,0,0,1,2.94-2.12,25.16,25.16,0,0,1,5.62-1.29,68.37,68.37,0,0,1,9.06-.49,65.47,65.47,0,0,1,8.85.49,26.48,26.48,0,0,1,5.61,1.29,6.37,6.37,0,0,1,3,2.12,4.93,4.93,0,0,1,.91,2.92Z" transform="translate(-81.64 -639.57)"/><path class="d" d="M1573.3,1234.7a71.58,71.58,0,0,1-.36,7.88,23.17,23.17,0,0,1-1,5.11,6.65,6.65,0,0,1-1.75,2.84,3.53,3.53,0,0,1-2.32.9h-91.27a10.57,10.57,0,0,1-7.8-3.17q-3.16-3.16-3.16-10.31V1054.84q0-7.15,3.16-10.31a10.53,10.53,0,0,1,7.8-3.17h90.71a3.51,3.51,0,0,1,2.25.81,6.45,6.45,0,0,1,1.68,2.84,24.92,24.92,0,0,1,1,5.2,79.64,79.64,0,0,1,.34,8,75.44,75.44,0,0,1-.34,7.71,23.27,23.27,0,0,1-1,5.12,7,7,0,0,1-1.68,2.84,3.25,3.25,0,0,1-2.25.9h-64.89v51.29h54.91a3.5,3.5,0,0,1,2.32.89,6.57,6.57,0,0,1,1.75,2.76,20.84,20.84,0,0,1,1.05,5,70,70,0,0,1,.36,7.72,69.19,69.19,0,0,1-.36,7.79,20.51,20.51,0,0,1-1.05,5,5.84,5.84,0,0,1-1.75,2.68,3.68,3.68,0,0,1-2.32.81h-54.91V1218h65.45a3.57,3.57,0,0,1,2.32.89,6.76,6.76,0,0,1,1.75,2.85,23.17,23.17,0,0,1,1,5.11,71.51,71.51,0,0,1,.36,7.87" transform="translate(-81.64 -639.57)"/><path class="b" d="M1710.53,1244a15,15,0,0,1-1.83,4.46,6.89,6.89,0,0,1-3.65,2.6,25.86,25.86,0,0,1-6.88,1.13c-2.9.17-6.7.25-11.37.25q-5.62,0-9.63-.08t-6.81-.41a20.49,20.49,0,0,1-4.56-1,10.11,10.11,0,0,1-3-1.63A6.57,6.57,0,0,1,1661,1247a24.12,24.12,0,0,1-1.19-3.49l-54.06-186.2a55.41,55.41,0,0,1-2-9.25c-.24-2.28.22-4,1.4-5.12s3.15-1.83,6-2.11,6.75-.4,11.8-.4c4.31,0,7.67.11,10.11.32a20.17,20.17,0,0,1,5.62,1.14,4.87,4.87,0,0,1,2.73,2.44,26.53,26.53,0,0,1,1.48,4l44.24,162h.14l43.39-161.19a18.48,18.48,0,0,1,1.4-4.47,5.91,5.91,0,0,1,2.88-2.68,17.46,17.46,0,0,1,5.83-1.3c2.52-.21,6-.32,10.39-.32a78.07,78.07,0,0,1,10,.49q3.58.48,4.91,2.35t.84,5.27a66.63,66.63,0,0,1-2.17,9.09Z" transform="translate(-81.64 -639.57)"/><path class="b" d="M1827.22,1245.58a5.06,5.06,0,0,1-.91,2.93,6.43,6.43,0,0,1-3,2.11,25.84,25.84,0,0,1-5.62,1.29,82,82,0,0,1-17.9,0,26,26,0,0,1-5.69-1.29,6.48,6.48,0,0,1-3-2.11,5,5,0,0,1-.91-2.93V1047.21a4.93,4.93,0,0,1,.91-2.92,6.41,6.41,0,0,1,3.09-2.12,27.86,27.86,0,0,1,5.69-1.29,65.37,65.37,0,0,1,8.85-.49,66.65,66.65,0,0,1,9,.49,26.45,26.45,0,0,1,5.62,1.29,6.37,6.37,0,0,1,3,2.12,5,5,0,0,1,.91,2.92Z" transform="translate(-81.64 -639.57)"/><path class="b" d="M2016.66,1236.49a18.45,18.45,0,0,1-1.13,6.66,14.33,14.33,0,0,1-3,4.87,11.43,11.43,0,0,1-4.49,2.84,16.23,16.23,0,0,1-5.26.89H1987a28.48,28.48,0,0,1-8.49-1.13,16.36,16.36,0,0,1-6.6-4.15,35.68,35.68,0,0,1-5.83-8.11q-2.8-5.11-6.32-13.23l-45.22-98.22q-3.93-8.76-8-18.91t-7.3-19.73H1899q.57,11.7.84,23.3t.28,24v109.9a5.64,5.64,0,0,1-.77,2.92,5.85,5.85,0,0,1-2.66,2.19,18.7,18.7,0,0,1-5.14,1.38,58,58,0,0,1-8.28.49,56.71,56.71,0,0,1-8.14-.49,17.57,17.57,0,0,1-5.06-1.38,5.38,5.38,0,0,1-2.52-2.19,5.9,5.9,0,0,1-.71-2.92v-188.8q0-7.62,3.86-11.45a13,13,0,0,1,9.48-3.81H1900a33.46,33.46,0,0,1,9,1.05,17.54,17.54,0,0,1,6.52,3.5,25.47,25.47,0,0,1,5.41,6.73,90.85,90.85,0,0,1,5.2,10.64l35.39,76.78c2,4.65,4.1,9.23,6.11,13.72s4,9,5.83,13.47l5.48,13.23q2.65,6.49,5.19,13h.14q-.42-11.35-.63-23.7t-.22-23.54v-98.54a5.28,5.28,0,0,1,.85-2.92,6.88,6.88,0,0,1,2.8-2.27,16.5,16.5,0,0,1,5.2-1.38,68.89,68.89,0,0,1,8.28-.41,65.88,65.88,0,0,1,8,.41,14,14,0,0,1,5,1.38,6,6,0,0,1,2.47,2.27,6.15,6.15,0,0,1,.7,2.92Z" transform="translate(-81.64 -639.57)"/><path class="e" d="M2095.71,1228.05q0,15.09-4.56,20.29t-16.36,5.2q-11.8,0-16.3-5.12T2054,1229q0-15.26,4.55-20.45t16.51-5.2q11.66,0,16.15,5.11t4.49,19.57" transform="translate(-81.64 -639.57)"/><path class="e" d="M2253.83,1219.61q0,4.07-.21,6.89a37.93,37.93,0,0,1-.63,4.87,15.66,15.66,0,0,1-1.12,3.5,17.51,17.51,0,0,1-2.26,3.33,28.77,28.77,0,0,1-6,4.79,67,67,0,0,1-10.81,5.6,85.63,85.63,0,0,1-14.61,4.46,83.61,83.61,0,0,1-17.77,1.78q-18.66,0-33.69-6.65a66.9,66.9,0,0,1-25.56-19.89q-10.55-13.23-16.15-33t-5.62-46.1q0-26.78,6.18-47.56t17.28-34.9a73,73,0,0,1,26.61-21.43,79.21,79.21,0,0,1,34.19-7.31,71.79,71.79,0,0,1,14.6,1.46,80.12,80.12,0,0,1,13,3.82,60.59,60.59,0,0,1,10.74,5.44,32.48,32.48,0,0,1,6.68,5.27,18.2,18.2,0,0,1,2.59,3.65,15,15,0,0,1,1.12,3.74,45.15,45.15,0,0,1,.64,5.36c.14,2,.21,4.6.21,7.63q0,4.86-.28,8.28a24.12,24.12,0,0,1-1,5.51,7.77,7.77,0,0,1-1.68,3.09,3.1,3.1,0,0,1-2.25,1c-1.41,0-3.18-.94-5.34-2.84a87.19,87.19,0,0,0-8.35-6.33,63.58,63.58,0,0,0-12.22-6.33,45.48,45.48,0,0,0-16.91-2.84,36.72,36.72,0,0,0-19.32,5.11,43.93,43.93,0,0,0-14.46,14.61,74.33,74.33,0,0,0-9.06,23,136.94,136.94,0,0,0-3.09,30.36q0,18.51,3.3,32.06t9.41,22.32a39.31,39.31,0,0,0,14.75,13.07,42.94,42.94,0,0,0,19.45,4.3,48.4,48.4,0,0,0,17-2.68,66.14,66.14,0,0,0,12.29-5.92q5.11-3.26,8.42-5.84t5.13-2.6a3.59,3.59,0,0,1,2.24.65,4.94,4.94,0,0,1,1.41,2.6,29.53,29.53,0,0,1,.84,5.43c.18,2.33.28,5.44.28,9.34" transform="translate(-81.64 -639.57)"/><path class="e" d="M2441.72,1144q0,26.13-5.62,46.75t-16.71,35a72.59,72.59,0,0,1-27.45,21.92q-16.36,7.55-37.85,7.55-21.2,0-37-6.41a64.1,64.1,0,0,1-26.33-19.57q-10.53-13.14-15.8-33.44t-5.26-48q0-25.49,5.62-45.86t16.71-34.66a73.79,73.79,0,0,1,27.45-21.91q16.35-7.63,38-7.63,20.63,0,36.43,6.33a63.79,63.79,0,0,1,26.4,19.48q10.6,13.15,16,33.2t5.41,47.32m-38.75,2.27a185.78,185.78,0,0,0-2.25-30.11,71.26,71.26,0,0,0-7.66-23.22,39,39,0,0,0-14.39-14.93q-9-5.27-22.47-5.28t-22.75,5.93a44.8,44.8,0,0,0-14.74,15.83,71.47,71.47,0,0,0-7.94,23.13,162.76,162.76,0,0,0-2.31,28,192.45,192.45,0,0,0,2.24,30.93,73.48,73.48,0,0,0,7.58,23.45,37.26,37.26,0,0,0,14.33,14.86q9,5.12,22.61,5.11t22.74-5.84a43.85,43.85,0,0,0,14.75-15.91,73.53,73.53,0,0,0,7.93-23.46,166.5,166.5,0,0,0,2.33-28.49" transform="translate(-81.64 -639.57)"/><path class="e" d="M2684.52,1245.58a5.7,5.7,0,0,1-.77,2.93,5.56,5.56,0,0,1-2.81,2.11,24.34,24.34,0,0,1-5.4,1.29,62.66,62.66,0,0,1-8.58.49,61,61,0,0,1-8.41-.49,22.78,22.78,0,0,1-5.34-1.29,6,6,0,0,1-2.81-2.11,5.23,5.23,0,0,1-.85-2.93V1074.64h-.27l-52.67,170.78a8.19,8.19,0,0,1-1.82,3.49,8.69,8.69,0,0,1-3.45,2.19,20.21,20.21,0,0,1-5.54,1.05q-3.37.25-8.14.25a69.6,69.6,0,0,1-8.15-.41,22,22,0,0,1-5.55-1.29,10.14,10.14,0,0,1-3.43-2.19,6.45,6.45,0,0,1-1.69-3.09L2508,1074.64h-.28v170.94a4.94,4.94,0,0,1-3.65,5,25.48,25.48,0,0,1-5.41,1.29,73.28,73.28,0,0,1-16.92,0,24.2,24.2,0,0,1-5.4-1.29,5.56,5.56,0,0,1-2.81-2.11,5.7,5.7,0,0,1-.77-2.93V1058.41q0-8.28,3.79-12.67a12.71,12.71,0,0,1,10.11-4.38h24.15a44.22,44.22,0,0,1,11.1,1.22,20.15,20.15,0,0,1,8,4.06,22.11,22.11,0,0,1,5.61,7.47,58.69,58.69,0,0,1,3.94,11.44l39.32,125.16h.56l40.73-124.84a72,72,0,0,1,4-11.52,26.71,26.71,0,0,1,5-7.63,16.05,16.05,0,0,1,6.82-4.14,30.89,30.89,0,0,1,9.12-1.22h24.86a17,17,0,0,1,6.53,1.14,11.15,11.15,0,0,1,4.49,3.33,15.27,15.27,0,0,1,2.67,5.35,26.46,26.46,0,0,1,.91,7.23Z" transform="translate(-81.64 -639.57)"/><path class="f" d="M206.15,715.8H174.76l-4.36,14.77H142.17l33.63-89.48H206l33.62,89.48h-29Zm-5.73-19.35-9.88-32.17-9.77,32.17Z" transform="translate(-81.64 -639.57)"/><path class="f" d="M281.28,665.75h23.2v9.46a32.36,32.36,0,0,1,10.11-8.42,27.73,27.73,0,0,1,12.32-2.51q7.75,0,12.28,2.75a20.39,20.39,0,0,1,7.4,8.18q5.85-6.35,10.67-8.64a27.66,27.66,0,0,1,11.88-2.29q10.42,0,16.28,6.2t5.85,19.38v40.71h-24.9V693.64c0-2.93-.57-5.1-1.71-6.53a7.47,7.47,0,0,0-6.2-3.36,8.79,8.79,0,0,0-7.06,3.18q-2.67,3.17-2.67,10.19v33.45H323.82V694.86a22.29,22.29,0,0,0-.49-5.8,7.92,7.92,0,0,0-2.75-3.93,7.36,7.36,0,0,0-4.6-1.5,8.84,8.84,0,0,0-7,3.24q-2.76,3.23-2.76,10.62v33.08h-24.9Z" transform="translate(-81.64 -639.57)"/><path class="f" d="M512.44,704.32H462.63q.67,6,3.24,8.91a11.76,11.76,0,0,0,9.39,4.22,14,14,0,0,0,7-1.84,16.27,16.27,0,0,0,4.34-4.08L511,713.78q-5.61,9.76-13.55,14T474.72,732q-12.89,0-20.27-3.63a29.79,29.79,0,0,1-12.24-11.53,34.88,34.88,0,0,1-4.85-18.59q0-15.19,9.74-24.6t26.88-9.4q13.92,0,22,4.22a28.33,28.33,0,0,1,12.26,12.2q4.21,8,4.22,20.82Zm-25.27-11.9q-.74-7.2-3.88-10.31a12.15,12.15,0,0,0-17.73,1.58c-1.51,2-2.46,4.87-2.87,8.73Z" transform="translate(-81.64 -639.57)"/><path class="f" d="M558.47,665.75h23.25v10.62q3.36-6.9,6.93-9.49a14.6,14.6,0,0,1,8.82-2.6,26.2,26.2,0,0,1,12,3.42l-7.69,17.7a19.54,19.54,0,0,0-7-1.83,8.57,8.57,0,0,0-7.56,4q-3.85,5.67-3.85,21.24v21.73h-25Z" transform="translate(-81.64 -639.57)"/><path class="f" d="M649,641.09h24.85V658H649Zm0,24.66h24.85v64.82H649Z" transform="translate(-81.64 -639.57)"/><path class="f" d="M772.42,705.18,796,707.86a33,33,0,0,1-6.41,12.79A29.7,29.7,0,0,1,778.25,729q-6.93,3-17.61,3a64.94,64.94,0,0,1-17.18-1.92,29.94,29.94,0,0,1-11.81-6.22,31.28,31.28,0,0,1-7.75-10.09q-2.8-5.79-2.81-15.37,0-10,3.42-16.65a30.28,30.28,0,0,1,6.83-8.75,31.56,31.56,0,0,1,8.91-5.76q7.28-3,18.62-3,15.87,0,24.2,5.68t11.69,16.6l-23.38,3.11a10.78,10.78,0,0,0-4-6.25,12.91,12.91,0,0,0-7.78-2.11,12.58,12.58,0,0,0-10,4.42q-3.81,4.42-3.81,13.37,0,8,3.78,12.13a12.51,12.51,0,0,0,9.65,4.14,13.27,13.27,0,0,0,8.21-2.5,15,15,0,0,0,5-7.69" transform="translate(-81.64 -639.57)"/><path class="f" d="M864.47,686.74l-23.74-2.5a26.5,26.5,0,0,1,3.88-9.79,21.33,21.33,0,0,1,7.29-6.2,30.51,30.51,0,0,1,9.4-2.93,76,76,0,0,1,12.94-1,102,102,0,0,1,17.94,1.26,23,23,0,0,1,11.29,5.21,18.27,18.27,0,0,1,5,7.79,28.1,28.1,0,0,1,1.83,9.61v28.62a34.35,34.35,0,0,0,.58,7.18,32.55,32.55,0,0,0,2.53,6.62H890.11a22.87,22.87,0,0,1-1.83-3.82,27.76,27.76,0,0,1-.86-4.12,32.17,32.17,0,0,1-9.7,6.72A40.42,40.42,0,0,1,862.4,732q-11.6,0-17.61-5.37a17,17,0,0,1-6-13.24,17.35,17.35,0,0,1,4.33-12.15q4.33-4.75,16-7.08,14-2.81,18.13-3.94a83.48,83.48,0,0,0,8.79-3q0-4.57-1.89-6.4c-1.27-1.23-3.48-1.84-6.66-1.84-4.07,0-7.12.66-9.15,2q-2.39,1.53-3.85,5.73M886,699.81q-5.13,1.83-10.68,3.23-7.58,2-9.59,4a6.37,6.37,0,0,0,0,9.37c1.37,1.24,3.37,1.86,6,1.86a15.4,15.4,0,0,0,7.72-2,12.13,12.13,0,0,0,5.06-4.91,16.38,16.38,0,0,0,1.5-7.54Z" transform="translate(-81.64 -639.57)"/><polygon class="f" points="875.62 1.53 900.4 1.53 900.4 16.3 896.5 34.42 879.65 34.42 875.62 16.3 875.62 1.53"/><path class="f" d="M1024.29,712.56l24.66-2.32a12.13,12.13,0,0,0,4.27,6.29,12.69,12.69,0,0,0,7.32,1.89q5,0,7.75-2.13a4.76,4.76,0,0,0,2.14-4,4.55,4.55,0,0,0-2.81-4.15q-2-1-10.68-2.56-12.95-2.25-18-4.17a19,19,0,0,1-8.49-6.5,16.83,16.83,0,0,1-3.45-10.42,17,17,0,0,1,3.73-11,22.12,22.12,0,0,1,10.25-6.92q6.52-2.28,17.52-2.29,11.6,0,17.12,1.77a22.44,22.44,0,0,1,9.22,5.5,28.79,28.79,0,0,1,6.13,10.07l-23.56,2.32a8.07,8.07,0,0,0-3-4.58,12.52,12.52,0,0,0-7.08-2c-2.81,0-4.86.49-6.14,1.49a4.46,4.46,0,0,0-1.92,3.63,3.85,3.85,0,0,0,2.44,3.59q2.44,1.21,10.62,2.2,12.39,1.39,18.44,3.9a20.25,20.25,0,0,1,9.24,7.13,17.51,17.51,0,0,1,3.21,10.18,20,20,0,0,1-3.39,10.92q-3.39,5.29-10.68,8.44T1059.26,732q-17.76,0-25.3-5.06a22.78,22.78,0,0,1-9.67-14.41" transform="translate(-81.64 -639.57)"/><path class="f" d="M1217.18,641.09h51.76q12.94,0,19.87,6.41a20.74,20.74,0,0,1,6.93,15.87,20,20,0,0,1-5,13.61,22,22,0,0,1-9.64,6q9.64,2.32,14.19,8t4.55,14.19a24.35,24.35,0,0,1-3.24,12.51,23.92,23.92,0,0,1-8.85,8.79q-3.48,2-10.5,2.93a121.9,121.9,0,0,1-12.39,1.22h-47.73Zm27.9,35.1h12c4.31,0,7.31-.75,9-2.23a8.12,8.12,0,0,0,2.54-6.44,7.64,7.64,0,0,0-2.54-6.1q-2.53-2.2-8.82-2.2h-12.2Zm0,35.15h14.1q7.14,0,10.07-2.53a8.56,8.56,0,0,0,2.93-6.81,7.87,7.87,0,0,0-2.9-6.37c-1.94-1.61-5.32-2.41-10.17-2.41h-14Z" transform="translate(-81.64 -639.57)"/><path class="f" d="M1419,704.32h-49.81q.68,6,3.24,8.91a11.77,11.77,0,0,0,9.4,4.22,14,14,0,0,0,7-1.84,16.4,16.4,0,0,0,4.33-4.08l24.47,2.25q-5.61,9.76-13.55,14T1381.32,732q-12.88,0-20.27-3.63a29.7,29.7,0,0,1-12.23-11.53,34.79,34.79,0,0,1-4.86-18.59q0-15.19,9.74-24.6t26.89-9.4q13.9,0,22,4.22a28.4,28.4,0,0,1,12.27,12.2q4.2,8,4.21,20.82Zm-25.27-11.9q-.74-7.2-3.88-10.31a12.15,12.15,0,0,0-17.73,1.58q-2.25,2.94-2.87,8.73Z" transform="translate(-81.64 -639.57)"/><path class="f" d="M1460.43,712.56l24.66-2.32a12.19,12.19,0,0,0,4.27,6.29,12.75,12.75,0,0,0,7.33,1.89c3.33,0,5.92-.71,7.75-2.13a4.79,4.79,0,0,0,2.14-4,4.55,4.55,0,0,0-2.81-4.15c-1.34-.69-4.91-1.54-10.68-2.56q-12.94-2.25-18-4.17a19,19,0,0,1-8.48-6.5,16.83,16.83,0,0,1-3.45-10.42,17.09,17.09,0,0,1,3.72-11,22.1,22.1,0,0,1,10.26-6.92q6.52-2.28,17.51-2.29,11.6,0,17.12,1.77a22.31,22.31,0,0,1,9.22,5.5,28.64,28.64,0,0,1,6.13,10.07l-23.56,2.32a8,8,0,0,0-3-4.58,12.47,12.47,0,0,0-7.08-2c-2.8,0-4.85.49-6.13,1.49a4.46,4.46,0,0,0-1.92,3.63,3.85,3.85,0,0,0,2.44,3.59q2.43,1.21,10.62,2.2,12.39,1.39,18.43,3.9a20.28,20.28,0,0,1,9.25,7.13,17.57,17.57,0,0,1,3.2,10.18,20,20,0,0,1-3.39,10.92q-3.37,5.29-10.68,8.44T1495.41,732q-17.76,0-25.3-5.06a22.8,22.8,0,0,1-9.68-14.41" transform="translate(-81.64 -639.57)"/><path class="f" d="M1605.53,641.09v24.66h13.67v18.19h-13.67v23q0,4.14.79,5.48a4.54,4.54,0,0,0,4.27,2.07,27.06,27.06,0,0,0,7.69-1.58l1.83,17.15a81,81,0,0,1-17.21,2q-9.27,0-13.67-2.37a14.52,14.52,0,0,1-6.5-7.23q-2.1-4.84-2.11-15.69v-22.8h-9.15V665.75h9.15v-11.9Z" transform="translate(-81.64 -639.57)"/><path class="f" d="M1802.69,694l24.23,7.32a44.55,44.55,0,0,1-7.69,17,33.36,33.36,0,0,1-13,10.32q-7.79,3.46-19.8,3.47-14.6,0-23.84-4.23t-16-14.92q-6.7-10.66-6.71-27.32,0-22.2,11.81-34.13t33.42-11.92q16.91,0,26.58,6.83t14.37,21l-24.41,5.43a20.86,20.86,0,0,0-2.69-6,15.79,15.79,0,0,0-5.68-4.88,16.27,16.27,0,0,0-7.5-1.71q-9.4,0-14.41,7.56-3.78,5.61-3.78,17.61,0,14.88,4.51,20.4t12.7,5.51q7.93,0,12-4.45t5.89-12.94" transform="translate(-81.64 -639.57)"/><path class="f" d="M1895.72,686.74l-23.74-2.5a26.68,26.68,0,0,1,3.88-9.79,21.33,21.33,0,0,1,7.29-6.2,30.51,30.51,0,0,1,9.4-2.93,76,76,0,0,1,12.94-1,102,102,0,0,1,17.94,1.26,23,23,0,0,1,11.29,5.21,18.27,18.27,0,0,1,5,7.79,28.1,28.1,0,0,1,1.83,9.61v28.62a34.35,34.35,0,0,0,.58,7.18,32.55,32.55,0,0,0,2.53,6.62h-23.31a22.87,22.87,0,0,1-1.83-3.82,27.76,27.76,0,0,1-.86-4.12,32.17,32.17,0,0,1-9.7,6.72,40.42,40.42,0,0,1-15.32,2.68q-11.6,0-17.61-5.37a17,17,0,0,1-6-13.24,17.35,17.35,0,0,1,4.33-12.15q4.34-4.75,16-7.08,14-2.81,18.13-3.94a83.48,83.48,0,0,0,8.79-3q0-4.57-1.89-6.4t-6.66-1.84c-4.06,0-7.12.66-9.15,2q-2.38,1.53-3.85,5.73m21.55,13.07q-5.13,1.83-10.68,3.23-7.58,2-9.58,4a6.36,6.36,0,0,0,0,9.37c1.37,1.24,3.37,1.86,6,1.86a15.4,15.4,0,0,0,7.72-2,12.13,12.13,0,0,0,5.06-4.91,16.38,16.38,0,0,0,1.5-7.54Z" transform="translate(-81.64 -639.57)"/><path class="f" d="M1991.07,665.75h23.26v10.62q3.35-6.9,6.92-9.49a14.6,14.6,0,0,1,8.82-2.6,26.24,26.24,0,0,1,12,3.42l-7.69,17.7a19.54,19.54,0,0,0-7-1.83,8.57,8.57,0,0,0-7.57,4q-3.84,5.67-3.84,21.24v21.73h-25Z" transform="translate(-81.64 -639.57)"/><path class="f" d="M2158.45,641.09h51.76q12.95,0,19.87,6.41a20.74,20.74,0,0,1,6.93,15.87,20,20,0,0,1-5,13.61,22,22,0,0,1-9.64,6q9.64,2.32,14.19,8t4.55,14.19a24.35,24.35,0,0,1-3.24,12.51,23.78,23.78,0,0,1-8.85,8.79q-3.48,2-10.5,2.93a121.9,121.9,0,0,1-12.39,1.22h-47.73Zm27.9,35.1h12c4.31,0,7.32-.75,9-2.23a8.12,8.12,0,0,0,2.54-6.44,7.64,7.64,0,0,0-2.54-6.1c-1.68-1.47-4.63-2.2-8.82-2.2h-12.2Zm0,35.15h14.1q7.14,0,10.07-2.53a8.56,8.56,0,0,0,2.93-6.81,7.87,7.87,0,0,0-2.9-6.37q-2.9-2.42-10.16-2.41h-14Z" transform="translate(-81.64 -639.57)"/><path class="f" d="M2356.65,730.57h-23.19v-10.5q-5.19,6.46-10.47,9.22a27.89,27.89,0,0,1-13,2.74q-10.26,0-16.09-6.13T2288.11,707V665.75h25v35.64q0,6.11,2.26,8.67a8,8,0,0,0,6.34,2.56,9,9,0,0,0,7.3-3.41q2.84-3.42,2.84-12.27V665.75h24.84Z" transform="translate(-81.64 -639.57)"/><path class="f" d="M2399,665.75h26.21l13.37,43.15L2451,665.75h24.48L2449.72,735q-4.39,11.85-9,16-6.47,5.87-19.71,5.86a141.22,141.22,0,0,1-16.59-1.46l-1.95-17.34a39.24,39.24,0,0,0,11.95,1.71,11.66,11.66,0,0,0,7.11-2c1.8-1.35,3.34-3.75,4.6-7.21Z" transform="translate(-81.64 -639.57)"/><path class="f" d="M2586.65,704.32h-49.8q.68,6,3.23,8.91a11.79,11.79,0,0,0,9.4,4.22,14,14,0,0,0,7-1.84,16.25,16.25,0,0,0,4.33-4.08l24.48,2.25q-5.61,9.76-13.55,14T2548.93,732q-12.87,0-20.26-3.63a29.79,29.79,0,0,1-12.24-11.53,34.88,34.88,0,0,1-4.85-18.59q0-15.19,9.74-24.6t26.88-9.4q13.92,0,22,4.22a28.35,28.35,0,0,1,12.27,12.2q4.21,8,4.21,20.82Zm-25.26-11.9q-.73-7.2-3.88-10.31a12.15,12.15,0,0,0-17.73,1.58c-1.51,2-2.46,4.87-2.87,8.73Z" transform="translate(-81.64 -639.57)"/><path class="f" d="M2632.69,665.75h23.25v10.62q3.36-6.9,6.93-9.49a14.6,14.6,0,0,1,8.82-2.6,26.2,26.2,0,0,1,12,3.42L2676,685.4a19.54,19.54,0,0,0-7-1.83,8.57,8.57,0,0,0-7.56,4q-3.86,5.67-3.85,21.24v21.73h-25Z" transform="translate(-81.64 -639.57)"/></g></svg>